/* XPM */
static char *c47d6613bd83419da16dbab73968a8f6QQOdOQsUQoqrFW1u[] = {
/* columns rows colors chars-per-pixel */
"64 64 128 2 ",
"   c black",
".  c #00002C",
"X  c #000034",
"o  c #00004C",
"O  c #000064",
"+  c #000070",
"@  c #00007C",
"#  c #000098",
"$  c #0000E0",
"%  c #280040",
"&  c #340058",
"*  c #400000",
"=  c #400040",
"-  c #440070",
";  c #480048",
":  c #4C0000",
">  c #500084",
",  c #580000",
"<  c #580058",
"1  c #640000",
"2  c #6C0070",
"3  c #700000",
"4  c #7C0000",
"5  c #840084",
"6  c #181818",
"7  c #202020",
"8  c #28200C",
"9  c #182118",
"0  c #302410",
"q  c #2E2B22",
"w  c #2C2C2C",
"e  c #403018",
"r  c #293121",
"t  c #343434",
"y  c #483818",
"u  c #313929",
"i  c #543C1C",
"p  c #004040",
"a  c #044000",
"s  c #404000",
"d  c gray25",
"f  c #5C4020",
"g  c #4C4436",
"h  c #6C4824",
"j  c #394A39",
"k  c #044C00",
"l  c #744C28",
"z  c #9C4C00",
"x  c #80502C",
"c  c #5E5246",
"v  c #585400",
"b  c #045800",
"n  c #885830",
"m  c gray36",
"M  c #5C60FC",
"N  c #736352",
"B  c #046400",
"V  c #646464",
"C  c #A86840",
"Z  c #706C00",
"A  c gray44",
"S  c #B47044",
"D  c #81735D",
"F  c #BC7848",
"G  c #7C7C7C",
"H  c #94846B",
"J  c gray55",
"K  c #989898",
"L  c gray66",
"P  c white",
"I  c None",
"U  c black",
"Y  c black",
"T  c black",
"R  c black",
"E  c black",
"W  c black",
"Q  c black",
"!  c black",
"~  c black",
"^  c black",
"/  c black",
"(  c black",
")  c black",
"_  c black",
"`  c black",
"'  c black",
"]  c black",
"[  c black",
"{  c black",
"}  c black",
"|  c black",
" . c black",
".. c black",
"X. c black",
"o. c black",
"O. c black",
"+. c black",
"@. c black",
"#. c black",
"$. c black",
"%. c black",
"&. c black",
"*. c black",
"=. c black",
"-. c black",
";. c black",
":. c black",
">. c black",
",. c black",
"<. c black",
"1. c black",
"2. c black",
"3. c black",
"4. c black",
"5. c black",
"6. c black",
"7. c black",
"8. c black",
"9. c black",
"0. c black",
"q. c black",
"w. c black",
"e. c black",
"r. c black",
"t. c black",
"y. c black",
"u. c black",
/* pixels */
"f f h f h l l f f f i y i h h l l h h h h f f f f f h l h f i y i f h h f i i i f h h f i y y i f f f i i f h f i y y i f f f y ",
"f f i i i i i i i i f f f f f f h f f f h l l l l h h l x n n x h h h f f f f h h f i y y y y y y y y i i i i y y y y y y y y f ",
"y i f i i i i i i i f f f f i i i i i f f h h f f i y i h l l h i i i y e e e y y e e e e e e e e e e e e e e e e e e e e e f f ",
"y 0 e e 0 0 0 8 8 0 e e 0 0 8 8 0 0 0 0 e e e e 0 8 8 0 e e e 0 8 8 0 0 8 8 8 8 8 8 8 8 0 0 8 8 8 8 8 8 8 8 8 8 0 0 8 8 8 8 l f ",
"y 0                                                                                                                         F i ",
"y 0                                                                                                                         S y ",
"y 0           v s s                                             N c c t           , : : *           + O O X n l l y         S y ",
"y 0   a a a w Z v v 8 3 1 1 * & % % . k a a a , : : * q 7 7 6   D N N g   3 1 1 * 3 , , * a a a w   @ + + o C e e f k a a a S i ",
"y 0   b k k a Z p p 8 4 3 3 : - & & % B k k a 3 , , * g q q 8   D N N g   4 3 3 : 3 z z * b k k a   @ M M o C n n f B k k a F f ",
"i 8   b A A a Z p p 8 4 K K : - d d % B a a a 3 y y * g H H 8   D D D g   4 K K : 3 , , * b A A a   @ + + o C n n f B A A a S h ",
"y 8   b k k a Z v v 8 4 3 3 : - & & % B a a a 3 y y * g q q 8   D N N g   4 3 3 : 3 y y * b k k a   @ $ $ o C n n f B m m a C f ",
"y 8   b k k a Z v v 8 4 A A : - A A % B k k a 3 , , * g y y 8   D N N g   4 A A : 3 , , * b k k a   @ + + o C n n f B k k a S i ",
"y 8   b k k a Z v v 8 4 3 3 : - & & % B k k a 3 , , * g q q 8   D N N g   4 3 3 : 3 , , * b k k a   @ + + o C n n f B k k a S i ",
"y 0   b k k a Z v v 8 4 3 3 : - & & % B k k a 3 , , * g q q 8   D N N g   4 3 3 : 3 , , * b k k a   @ + + o C n n f B k k a C f ",
"y 0   b k k a Z v v 8 4 3 3 : - & & % B k k a 3 , , * g q q 8   D N N g   4 3 3 : 3 , , * b k k a   @ + + o C n n f B k k a F f ",
"y 0   b k k a Z v v 8 4 3 3 : - & & % B k k a 3 , , * g q q 8   D N N g   4 3 3 : 3 , , * b k k a   @ + + o C n n f B k k a F f ",
"y 0   b k k a Z v v 8 4 3 3 : - & & % B k k a 3 , , * g q q 8   D N N g   4 3 3 : 3 , , * b k k a   @ + + o C A A f B k k a F i ",
"y 0   b d d a Z v v 8 4 3 3 : - & & % B k k a 3 , , * g q q 8   D N N g   4 3 3 : 3 , , * b d d a   @ + + o C n n f B k k a S y ",
"y 0   b k k a Z v v 8 4 z z : - > > % B k k a 3 d d * g g g 8   D g g g   4 z z : 3 d d * b k k a   @ # # o C n n f B k k a S y ",
"y 0   a a a w v s s   3 1 1 * & & & . k a a a , : : * q q q 6   D N N g   3 1 1 * , : : * a a a w   + O O X n l l e k a a a S i ",
"y e F F F F S S S S C C C F F S S S F F C C C C F S S S F F C C C C C C F S S F F F S F S S S F F F C S S C S F S S S F F F C f ",
"i i h f h l l f f f i y i h h l l h h h h f f f f f h l h f i y i f h h f i i i f h h f i y y i f f f i i f h f i y y i f y y h ",
"f f y y y i i y i i i i f h l l l h h l l l h h f f f h h h i y y i f h h f i i f f i y y y y y y y y y y y i y y y y y y y f h ",
"f 0 0 8 8 8 8 8 8 0 0 0 0 e e e e e e e y y y e e 0 0 e e e e 0 8 0 e e e e 0 0 0 0 0 0 0 0 0 0 0 0 0 8 8 8 8 0 0 0 0 0 0 8 l f ",
"i 0                                                                                                                         F i ",
"i 0                                                                                                                         S i ",
"f e   n l l y                   + O O X                               , : : *                   a a a a                     S i ",
"h e   C n n f 3 1 1 *   < ; ; % @ + + o   y e e 8   k a a w a a a w   3 , , * q 7 7 6 3 1 1 *   b k k a   v s s   + O O X   F f ",
"h e   C e e f 4 3 3 :   2 < < = @ G G o   i y y 8   B k k a b k k a   3 y y * g q q 8 4 3 3 :   b A A a   Z v v 8 @ + + o   C h ",
"f e   C n n f 4 K K :   2 K K = @ + + o   i x x 8   B a a a b A A a   3 y y * g L L 8 4 K K :   b k k a   Z p p 8 @ K K o   C h ",
"i 0   C n n f 4 3 3 :   2 < < = @ V V o   i x x 8   B a a a b k k a   3 , , * g q q 8 4 3 3 :   b k k a   Z v v 8 @ + + o   C f ",
"y 8   C n n f 4 K K :   2 < < = @ + + o   i y y 8   B k k a b k k a   3 , , * g L L 8 4 A A :   b k k a   Z v v 8 @ G G o   C i ",
"y 0   C n n f 4 3 3 :   2 < < = @ + + o   i y y 8   B k k a b k k a   3 , , * g q q 8 4 3 3 :   b k k a   Z v v 8 @ + + o   C y ",
"i e   C n n f 4 3 3 :   2 < < = @ + + o   i y y 8   B k k a b k k a   3 , , * g q q 8 4 3 3 :   b k k a   Z v v 8 @ + + o   C i ",
"h e   C n n f 4 3 3 :   2 < < = @ + + o   i y y 8   B k k a b k k a   3 , , * g q q 8 4 3 3 :   b k k a   Z v v 8 @ + + o   F f ",
"h e   C n n f 4 3 3 :   2 < < = @ + + o   i y y 8   B k k a b k k a   3 , , * g q q 8 4 3 3 :   b k k a   Z v v 8 @ + + o   F h ",
"h e   C A A f 4 3 3 :   2 < < = @ + + o   i y y 8   B k k a b k k a   3 , , * g q q 8 4 3 3 :   b k k a   Z v v 8 @ + + o   S l ",
"f 0   C n n f 4 3 3 :   2 < < = @ + + o   i y y 8   B k k a b d d a   3 , , * g q q 8 4 3 3 :   b d d a   Z v v 8 @ + + o   S h ",
"f 0   C n n f 4 z z :   2 5 5 = @ # # o   i l l 8   B k k a b k k a   3 d d * g g g 8 4 g g :   b k k a   Z v v 8 @ # # o   S f ",
"f e   n l l e 3 1 1 *   < ; ; % + O O X   y e e 8   k a a w a a a w   , : : * q q q 6 3 1 1 *   a a a a   v s s   + O O X   F f ",
"h e F F F F S S S S C C C F F S S S F F C C C C F S S S F F C C C C C C F S S F F F S F S S S F F F C S S C S F S S S F F F C f ",
"h i h f h l l f f f i y i h h l l h h h h f f f f f h l h f i y i f h h f i i i f h h f i y y i f f f i i f h f i y y i f y y f ",
"l f y y y i i y i i i i f h l l l h h l l l h h f f f h h h i y y i f h h f i i f f i y y y y y y y y y y y i y y y y y y y f f ",
"l 0 0 8 8 8 8 8 8 0 0 0 0 e e e e e e e y y y e e 0 0 e e e e 0 8 0 e e e e 0 0 0 0 0 0 0 0 0 0 0 0 0 8 8 8 8 0 0 0 0 0 0 8 l h ",
"l e                                                                                                                         F h ",
"h e                                                                                                                         F h ",
"h e             N c c t           , : : *                           v s s           + O O X n l l y                 + O O X S h ",
"l e   q 7 7 6   D N N g   3 1 1 * 3 , , *   u r r 9 & % % . k a a a Z v v 8 3 1 1 * @ + + o C e e f k a a a < ; ; % @ + + o S l ",
"l e   g q q 8   D J J g   4 3 3 : 3 y y *   j u u r - & & % B k k a Z p p 8 4 3 3 : @ K K o C n n f B k k a 2 < < = @ M M o S l ",
"l e   g L L 8   D N N g   4 K K : 3 y y *   j K K r - d d % B a a a Z p p 8 4 K K : @ + + o C n n f B d d a 2 K K = @ + + o F h ",
"h e   g q q 8   D A A g   4 3 3 : 3 , , *   j u u r - & & % B a a a Z v v 8 4 3 3 : @ A A o C n n f B d d a 2 < < = @ M M o F h ",
"f 0   g J J 8   D N N g   4 A A : 3 , , *   j A A r - A A % B k k a Z v v 8 4 A A : @ + + o C n n f B k k a 2 < < = @ + + o C i ",
"i 0   g q q 8   D N N g   4 3 3 : 3 , , *   j u u r - & & % B k k a Z v v 8 4 3 3 : @ + + o C n n f B k k a 2 < < = @ + + o C y ",
"i 0   g q q 8   D N N g   4 3 3 : 3 , , *   j u u r - & & % B k k a Z v v 8 4 3 3 : @ + + o C n n f B k k a 2 < < = @ + + o C i ",
"i 0   g q q 8   D N N g   4 3 3 : 3 , , *   j u u r - & & % B k k a Z v v 8 4 3 3 : @ + + o C n n f B k k a 2 < < = @ + + o S f ",
"i 8   g q q 8   D N N g   4 3 3 : 3 , , *   j u u r - & & % B k k a Z v v 8 4 3 3 : @ + + o C n n f B k k a 2 < < = @ + + o S f ",
"y 8   g q q 8   D N N g   4 3 3 : 3 , , *   j u u r - & & % B k k a Z v v 8 4 3 3 : @ + + o C A A f B k k a 2 < < = @ + + o S f ",
"i 8   g q q 8   D N N g   4 3 3 : 3 , , *   j u u r - & & % B k k a Z v v 8 4 3 3 : @ + + o C n n f B k k a 2 < < = @ + + o S l ",
"i 8   g g g 8   D g g g   4 z z : 3 d d *   j a a r - d d % B k k a Z v v 8 4 z z : @ d d o C n n f B k k a 2 g g = @ # # o F l ",
"y 8   q q q 6   D N N g   3 1 1 * , : : *   u r r 9 & & & . k a a a v s s   3 1 1 * + O O X n l l e k a a a < ; ; % + O O X F h ",
"y l F F F F S S S S C C C F F S S S F F C C C C F S S S F F C C C C C C F S S F F F S F S S S F F F C S S C S F S S S F F F F f ",
"y f h f h l l f f f i y i h h l l h h h h f f f f f h l h f i y i f h h f i i i f h h f i y y i f f f i i f h f i y y i f f f h ",
"y y y y y i i y i i i i f h l l l h h l l l h h f f f h h h i y y i f h h f i i f f i y y y y y y y y y y y i y y y y y y y y y ",
"0 0 0 8 8 8 8 8 8 0 0 0 0 e e e e e e e y y y e e 0 0 e e e e 0 8 0 e e e e 0 0 0 0 0 0 0 0 0 0 0 0 0 8 8 8 8 0 0 0 0 0 0 0 0 0 "
};
