/* XPM */
static char *_0a547f44e1e458dfacceb20835b0aaeNyitYdx1hj0xYHtw[] = {
/* columns rows colors chars-per-pixel */
"60 60 130 2 ",
"   c None",
".  c black",
"X  c #020101",
"o  c #020202",
"O  c #040303",
"+  c #040404",
"@  c gray2",
"#  c #060505",
"$  c #060606",
"%  c #070707",
"&  c #080707",
"*  c #0B0A0A",
"=  c #0B0B0B",
"-  c #0C0C0C",
";  c #0D0C0C",
":  c #0F0E0E",
">  c #111010",
",  c #131212",
"<  c #141212",
"1  c #141313",
"2  c gray8",
"3  c #151515",
"4  c #171616",
"5  c #181818",
"6  c #191818",
"7  c #1A1919",
"8  c #1B1919",
"9  c #1B1B1B",
"0  c #1D1B1B",
"q  c #1D1C1C",
"w  c #1E1D1D",
"e  c #330F0F",
"r  c #201E1E",
"t  c #211F1F",
"y  c #262323",
"u  c #272525",
"i  c #272626",
"p  c #272727",
"a  c #282626",
"s  c #282727",
"d  c #2D2A2A",
"f  c #2D2B2B",
"g  c #2E2B2B",
"h  c #2F2B2B",
"j  c #2E2C2C",
"k  c #302E2E",
"l  c #312E2E",
"z  c #323131",
"x  c #343232",
"c  c #373737",
"v  c #383737",
"b  c #3A3737",
"n  c #3B3838",
"m  c #3C3838",
"M  c #3C3939",
"N  c #3C3B3B",
"B  c #3F3C3C",
"V  c #403E3E",
"C  c #403F3F",
"Z  c #413F3F",
"A  c #423E3E",
"S  c #423F3F",
"D  c #433F3F",
"F  c #414040",
"G  c #424040",
"H  c #424141",
"J  c #434141",
"K  c #444141",
"L  c #444242",
"P  c #444343",
"I  c #454343",
"U  c #464242",
"Y  c #464343",
"T  c #454444",
"R  c #464444",
"E  c #474545",
"W  c #474646",
"Q  c #484646",
"!  c #494747",
"~  c #4A4747",
"^  c #4C4747",
"/  c #4A4848",
"(  c #4C4949",
")  c #4E4949",
"_  c #4D4B4B",
"`  c #4E4B4B",
"'  c #4F4C4C",
"]  c #504B4B",
"[  c #504D4D",
"{  c #514D4D",
"}  c #514E4E",
"|  c #524F4F",
" . c #535050",
".. c #555151",
"X. c #565252",
"o. c #565353",
"O. c #585454",
"+. c #595555",
"@. c #5A5656",
"#. c #5B5656",
"$. c #5A5757",
"%. c #5B5757",
"&. c #5C5757",
"*. c #5D5757",
"=. c #5E5757",
"-. c #5C5858",
";. c #5D5858",
":. c #5D5959",
">. c #5E5959",
",. c #5F5B5B",
"<. c #605B5B",
"1. c #605C5C",
"2. c #615C5C",
"3. c #625D5D",
"4. c #635E5E",
"5. c #645F5F",
"6. c #656060",
"7. c #666060",
"8. c #666161",
"9. c #676161",
"0. c #676262",
"q. c #686262",
"w. c #686363",
"e. c #696363",
"r. c #696464",
"t. c #6A6464",
"y. c #6B6464",
"u. c #6A6565",
"i. c #6B6565",
"p. c #F2EB00",
/* pixels */
"                                                                                                                        ",
"                                                                                                                        ",
"                                                                                                                        ",
"                                                                                                                        ",
"                                                                                                                        ",
"                                                                                                                        ",
"                                                                                                                        ",
"                                                                                                                        ",
"                                                                                                                        ",
"                                                                                                                        ",
"                                                                                                                        ",
"                    G $.t.t.t.t.t.t.t.t.V $ 9 V G G $.t.u.u.t.t.t.t.t.t.t.N o N u.u.t.t.i.                              ",
"                  V G $.t.9.9.w.i.i.i.i.G $ q P W W $.t.u.t.9.9.t.t.t.t.i.m o m t.9.9.t.t.                              ",
"                  V G $.9.o.| 4.i.i.t.9 5 5 p 5 5 5 5 5 9 5 5 5 4 4 9 5 i.v o m t.$.' 4.t.                              ",
"                  V G $.9.| ` 4.t.t.9 5 5 5 5 5 5 5 5 5 5 5 5 5 4 9 9 4 4 B o v 9.' P :.t.                              ",
"                  V G $.w.4.4.9.i.t.5 $ e e e e $ e e e e % e e e e $ e 4 m o B w.| P :.i.                              ",
"                  l l P ] ] ] ] | 4 4 % e e e e $ e e e e % e e e e % e 5 5 o s ` B z P ]                               ",
"                  = ; > < < < < , 9 , % e e e e * e e e e $ e e e e % e , 5 o * < ; = > <                               ",
"                  t t t t t 8 & $ 4 e % e e e e $ e e e e % e e e e % e e 4 t 5 t 4 4 8 t                               ",
"                  =.:.=.:.=.^ 4 4 9 e % e e e e $ e e e e % e e e e % e e 9 5 5 =.P B { :.                              ",
"                  $.$.5.i.i.o.4 9 4 e $ e e e e % e e e e % e e e e % e e 5 5 5 w.| P <.t.                              ",
"                  G P =.i.i.o.9 5 e e $ e e e e % e e e e % e e e e % e e e 5 5 w.] P :.t.                              ",
"                  o.o.4.i.i.o.4 9 e e $ e e e e % e e e e % e e e e $ e e e 5 5 w.:.X.5.t.                              ",
"                  t.t.t.t.t.o.9 9 e e $ e e e e % e e e e % e e e e % e e e 5 5 y.i.i.i.t.                              ",
"                  g j j j j y 4 e e e % e e e e % e e e e % e e e e $ e e e e 5 j j j j j                               ",
"                  $ $ $ $ $ o 9 e e e % e e e e % e e e e % e e e e * e e e e 5 $ $ $ & $                               ",
"                  V V G B l p 4 l l e % e e e e % e e e e % e e e e $ e e e e 5 V P V V D                               ",
"                  9.9.t.5.| P 4 l l e % e e e e % e e e e % e e e e & e e e e 4 w.w.9.t.t.                              ",
"                  ` ' :.9.4.O.4 e e e % e e e e % e e e e % e e e e & e e e e 4 w.X.| <.t.                              ",
"                  W / :.t.t.6.4 e e e % e e e e % e e e e % e e e e & e e e e 9 w.o.` <.t.                              ",
"                  <.<.9.t.i.9.9 e e e % e e e e % e e e e % e e e e & e e e e 4 w.5.<.w.t.                              ",
"                  ] ] ] ` | ` 9 e e e % e e e e % e e e e % e e p.e & p.e e e 4 ] ] ] ] |                               ",
"                  < , , < < < 9 e e e % e e e e % e e e e % e e e p.p.e e e e 5 , < < < <                               ",
"                  4 4 < 4 8 9 4 e e e % e e e e % e e e e % e e e p.p.e e e e 5 o < t t t                               ",
"                  c v v B | ~ 4 e e e % e e e e % e e e e % e e p.e e p.e e e 5 $ v :.=.=.                              ",
"                  V V ~ | 4.o.4 e e e % e e e e % e e e e % e e p.e e p.e e e 5 $ V w.<.$.                              ",
"                  V V $.9.t.o.4 e e e % e e e e % e e e e % e e e p.p.e e e e 5 $ G 9.' G                               ",
"                  V G $.t.t.o.9 e e e % e e e e % e e e e % e e e e % e e e e 5 $ V 9.=.o.                              ",
"                  V G $.i.t.o.4 e e e % e e e e % e e e e % e e e e % e e e e 4 $ V i.i.t.                              ",
"                  8 q a j j y 4 e e e % e e e e % e e e e % e e e e % e e e e 9 O q j j j                               ",
"                  $ O O O $ o 9 e e e % e e e e % e e e e $ e e e e % e e e e 5 O O O O $                               ",
"                  p a a a s g 4 l l e % e e e e % e e e e $ e e e e % e e e e 5 a a a a p                               ",
"                  W P P G G W 5 l l e % e e e e % e e e e $ e e e e % e e e e 5 W P P P W                               ",
"                  :.:.:.$.~ W 5 e e e % e e e e % e e e e % e e e e $ e e e e 4 :.:.:.:.:.                              ",
"                  y.i.i.9.| ` 5 e e e % e e e e % e e e e * e e e e % e e e e 4 i.i.i.i.t.                              ",
"                  y.i.i.w.4.4.5 e e e % e e e e % e e e e $ e e e e % e e e e 9 i.i.i.i.t.                              ",
"                    i.y.t.t.t.5 e e e % e e e e % e e e e & e e e e % e e e e 4 y.y.i.y.t.                              ",
"                                                                              9                                         ",
"                                                                                                                        ",
"                                                                                                                        ",
"                                                                                                                        ",
"                                                                                                                        ",
"                                                                                                                        ",
"                                                                                                                        ",
"                                                                                                                        ",
"                                                                                                                        ",
"                                                                                                                        ",
"                                                                                                                        ",
"                                                                                                                        ",
"                                                                                                                        "
};
