/* XPM */
static char *c98f9fde550346e0800dd87a669be1597IFX1mVUCvmfzHig[] = {
/* columns rows colors chars-per-pixel */
"64 64 64 1 ",
"  c black",
". c #640000",
"X c #700000",
"o c #7C0000",
"O c #880000",
"+ c #980000",
"@ c #A40000",
"# c #A80000",
"$ c #B00000",
"% c #BC0000",
"& c #C80000",
"* c #D40000",
"= c #E00000",
"- c gray11",
"; c #202020",
": c gray17",
"> c #2E2B22",
", c #382C14",
"< c #403018",
"1 c #483818",
"2 c #313929",
"3 c #543C1C",
"4 c #5C4020",
"5 c #4C4436",
"6 c #6C4824",
"7 c #524A42",
"8 c #744C28",
"9 c #80502C",
"0 c #5E5246",
"q c #885830",
"w c #905C34",
"e c #685D4C",
"r c #9C6038",
"t c #736352",
"y c #A0643C",
"u c #A86840",
"i c #736B52",
"p c #8C7B67",
"a c #94846B",
"s c #A89A85",
"d c white",
"f c None",
"g c black",
"h c black",
"j c black",
"k c black",
"l c black",
"z c black",
"x c black",
"c c black",
"v c black",
"b c black",
"n c black",
"m c black",
"M c black",
"N c black",
"B c black",
"V c black",
"C c black",
"Z c black",
"A c black",
"S c black",
"D c black",
"F c black",
/* pixels */
"::::::::::::::::::::::::::::::::::::::::::::::::::::::::::::::::",
"pppppppppptee0:::0eetppppppppppppppppppppptee0:::0eetppppppppppp",
"tiitetiiitppi5;::7eteiiipitiititppietei00eeei5;::7iiiie55e0eetit",
"pptitetppppip5;::770iiippittettipiptiiittitet5;::7ppiee55e0teepp",
"ppeettiiipiii5;::7eitiipiitittitipiittiatiete5;::7iipitt05tiiipp",
"iptiittppppp05;::7ieiiiiiiteetetipipappittee05;::7tipeeiieetiipa",
"ipiitiiiipipi5;::7ppiitteiiite0teeiippiiie0505;::7iiippiipippipi",
"ititiipppiiii5;::7piptetteiett7ttetipiitete505;::7eitiiipapiippp",
"----->>>>>2555;::5552>>>>------------>>>>>2555;::5552>>>>-------",
"---------------::------------------------------::---------------",
"rrwqq899q9yqqru9rq9999w989q99998988q9r9q99qw99969898989qr9wq99r8",
"6644313333411484643313431133334363111133313413436341313341333443",
",<,<<1<,<<1<<,<,<<1<,,<<<<<,<,<,<<1,,,,<<,<<<,<,<<1,<,<<<<,<,<<1",
"+++#$$#+O++O++@###@@+@@@@@@@@#$$$$#@+O++++@##@#$&&%%%&%&&%$$$#++",
"OO+@@@+OO+@@@@##$$$@++@@@@##$$%$$$@++OO+@@@$$$$%&**&%&&&&%$$$$@+",
"+O+@@++++@@#$###@#$#+@@$$$$$%$$%$$@OOOO++@#%&%%&***&$$%&%%%$$#@+",
"+++@@@+@#$%%%$#@@@##@#$%&%$$$##$$#+OOO++@#$%&&&&&&&%@@$%%&&$@@++",
"@@@@@@@@$%&%%%$@@+@#$$$%&&%$#$$##@++OOO@#$$$%&&&&%$$#@@$%%$@++++",
"@@@++@##$%%&%$$#@+@$%&&&&&&$#$$$#@+OOoo+@#$#$&&%$#@@##++@@#@+++@",
"@@@+@#$$%&&&%$$$##$%%&&&&&*&$##$#@@+OOO+@+@@@$%$#+++@+OoO+#$@+@@",
"@###%%%%%&**&&&&%&**&*&&&***%#@##@@@+OO++++@++@@@+++@+OoO+@@#@++",
"#$$%&&&&&&&*===*&&***&*****&%$@@#@@@+OoooO+@+@@@#@+@@@@OO++@$#+@",
"$%%&&&&&&**====*&%%&&&***&&&%$#@@@@+OooXXO+@####$$#@@$$+OO++#$$$",
"%%&&&***=======*&$%&**&&%%%%$#$@+@@@OooXXO+#$%%%$$#@@$$@OO++@$$%",
"&&&&**=====**=*&%%%&**&%%%%%$@@++++@+ooX.o+#$%&&%$$#@@#@++@@#$%&",
"&&&&&&=====&%&%$$%%%&&&%$$$$@++OOOO+++OoXo+@$&&*&$#@++@@@#@#$$%&",
"&&%%%&&****&%%%#$%%$%&&%%$@+OOOOOOO+@+OOOO+#$%&&&$@+++@#$$$$%%%&",
"&&%$$$%%&&&%$#$##$$$%%%%$@+OOOoOOOO++@+++++#$$%%$@@@##$$%&%%%%%%",
"%%%#@#$$$%%$#@@@#$$$$$$$@++OoooO+++++@#@+@+@###$$$#$$%%%&*&%%&%$",
"$$%$@##@+@@#$@@#$$%%%$#$$+++OOOOO+@@@##@@@+++@@$%&%%%&***==&%%%%",
"$$$$#@@++++@$##$$%%%%$#$$#@@+OOO++@@+@@@#@+O+@##$&&&&&****=*%%%%",
"$@++@+O++@++#$$$#$%&&%$$##@+++O++++@+@@#$#@+++@@$&&&***=**&&&%%%",
"$+oo++O+@@@+#%%&%%&**&%$$#@@#@++++O+@@#$%$$#++@#%**==*****&&&%$$",
"#@OXo++@##@@@$%&&&%&&&%%$$$#$$+++@@@@#$%&%$$@@#$&*==**&%&&%$%$@+",
"+++OoO@@##$#@@$$%&%&&&&&%$#@$$+OO@$#$%&&&&%%%$$$%&**&&%#$$#@@@+O",
"OO++OO+###$#++@#%%&&%&**&%#@@@@+O+$$%&*****&%%$#$%&%$$$@@@@@@+@+",
"+++@+oO@@@##+OO+#$%%%%&&&&$+++++++$&&*****&%$$$@@#$$###@+++++O++",
"@@@++oXo+@#$#+++@$%%$$%%&&$+OoO+++$&&***&&%$@#$@OO+@$#@@++OOoOO+",
"#@++OOXXO@$$$#@@@$%%%$$%%&%+OOO++@$%&*&&&%%#++@+OOO+@@@@@++OO++@",
"##@OOOoXo+#$$$$$$#$$%$#@#%%+OOO+##@#%&&&%%$#+oO@+OO+++@@@#$#+@@+",
"@@+OOOOoXO+$$%%%$##$$$$#@#$@+O+@@#@#$%%%$$##@OO+++++++@#$$$$#@+O",
"+OOO++OOooO@#$%%%$$%%%&%@@@@@+++@$$%%$$$$@@@#@++++++++@$%%%%$@++",
"OOOO++++oXX+@$%&%$%%%$%%#@+@@+++@$%%&%####@@@@@++++++O@$%&&%%$++",
"XoOO++++OoXX+#&&&$#$$$$$$@++@@++@$$%&%#@@#@@+@@@+++@#@#%&*&%$#++",
"OOO++OOOOOooO@%&%%@@#$$$$#+O@$#@@@$%&&%#@@@@+@####@#$%%&&*&&%#@+",
"++O+++OoOOOOO+#%%$#@@@$$$#+O+@#@++$%%&&$+++@+@##$$$#%&*&&**&%%%%",
"@+OO++OOO++O+++@$$$#@#$$$@++O+@@++#%%%%#OO+++@@#$$$$&==*&&&&%%%&",
"%@+OO++++@#@+OO+@$$$$$%%%#++OoO@@@#$%%%$@+OO++@#$$$%&===*&&%%$$%",
"%#@+O+@++@#@+OO+@$%%%$%%%#@+OoO+#@@@#$%%%#+OO++#$$%&&====&%%$$$$",
"##@OOO+@@@@$#+++@$%%%$$$$#@+OOoO++++@#$$$$@+O+@$%%%&&&===*%%$$$$",
"@#@++++@$$#%&%%$$%%%$#@@###+OOoXoO+++$%&%$#@++#$%%%%&%&===&%$##$",
"99998988q9r9q99qw99969898989qr9wq99r8rrwqq899q9yqqru9rq9999w989q",
"3334363111133313413436341313341333443664431333341148464331343113",
",<,<,<<1,,,,<<,<<<,<,<<1,<,<<<<,<,<<1,<,<<1<,<<1<<,<,<<1<,,<<<<<",
"::::::::::::::::::::::::::::::::::::::::::::::::::::::::::::::::",
":0eetppppppppppppppppppppptee0:::0eetppppppppppppppppppppptee0::",
":7iipippapppapiipppie0teiiipp5;::7piptiiiaaapapiippiiiteippia5;:",
":7iiiptaassaitiiipipietiipiap5;::7eitttiiiapapppiptiiittttipa5;:",
":7tetpiaaaaaiptetitiptepppiap5;::70iitititpippiiitetttitpiipi5;:",
":707t0apaasaiteteiiiiptippaai5;::7iitteeeeiippitt7ieipiippipp5;:",
":7t0tiippaaspit70ttpipiippppi5;::70tit0eeeeepipit0ttepppaaite5;:",
":7te0tiippipiiitettpippiipipp5;::7t0e0t7et0eitppiieitiappippe5;:",
":5552>>>>------------>>>>>2555;::5552>>>>------------>>>>>2555;:",
":------------------------------::------------------------------:"
};
