/* XPM */
static char *_6a0b7de5464499786906a8289ead1e3JsW2XVpGSRaN2FUy[] = {
/* columns rows colors chars-per-pixel */
"64 64 16 1 ",
"  c black",
". c #191919",
"X c #202020",
"o c #282828",
"O c gray19",
"+ c gray22",
"@ c gray25",
"# c #4B4B4B",
"$ c gray36",
"% c #646464",
"& c gray44",
"* c #7C7C7C",
"= c white",
"- c None",
"; c black",
": c black",
/* pixels */
"################+OOooO+#+++++OOOOO++++OO+OO++oooooooooooooooooo ",
"+OOOOOO+++++++OOoooOooooooooX.....oooooooXo.................... ",
"+O+O&#++++&#O++OOooOOooXXXX.......XooooooXX..........&#....&#.o ",
"++O+#.++++#.+++OoooooXXX...........XXXoooOoX.........# ....# .. ",
"+oO++OOO+++++++oooXXXX..............XXXXoooooo............  ... ",
"+OO++OOOOOO+++OOXXXXXX..............XXXXoXooooXX........... ... ",
"+oO++OooooOOOOooXXXXXXX..............XoooOOOoooXX.............. ",
"#oo+&#oo.......                        ......           ...&#.. ",
"#OOO#.oo.oOOOOOX.XooXXoooXXXXX......XXoOOOOOOooXX.....Xo$X.# .. ",
"#oOooooo.O+&#OOooo&#ooO++o&#oX.....&#XoOoooo&#ooXX..&#XO%ooo.X. ",
"+OOoOooo.++#.OOooo#.O+OOOO#.oXX....#.XooXXXX#.oXXX..# Xo%OOo... ",
"#OOOoOoO.+++++OOoXoOOOOoooXooXXX..XXXXXXXXXXXooXXXXXXXXo$OOoX.. ",
"#OOOoOOO.++O++.                                   ..XXXX$OOoX.. ",
"#OOOOOO+.+OOOO.OOoooXXXXXXXXX.....XoooooXXX....XXo@oXXXX$oooX.. ",
"#OOOOO++.+OOOO.+OOooXXXXXooooXX.X.XoooXX.........X@ooXX.#XXX... ",
"#OOOOO++.OOOOO.++OooXXXXXXXoooooooooooX...........@oo.XX#...... ",
"#OOOOOO+.OOOOO.O++OooXXXXXXooooooooooooX..........@XXX..#...... ",
"#+OOOOO+.OOOO+.OO++ooooXXXXooooooooooooXX.........+XXXX.#...... ",
"#+++OOO+.OOOO+.OO++OooooXXXXooooooooooooXX........+XXXX.#...... ",
"#+O++OOO.OO&#+XoOO++OooooXXooooooooooooooXXX......+X&#X.#...... ",
"#O+O+OOo.OO#.OXooOO++OooooXXXoooooooooooooXXX.....+X# XX$XXX... ",
"#O+++Ooo.++++OXoooOO++OoooXXXXooooooooooooooXX....+.XXXX$XXX... ",
"#O++OoXo.O+O++.OOOOO++OOoooXXXXXXXXXXooooooooX....+..Xoo$XX.... ",
"#O++Oooo.O+O++.+OOOOO++OOoooooXXXXXXXooooooooXX...+..Xoo$oX.... ",
"#+++OOOO.o+++O.+OOOOO++++OoooooXXXXXXXooooooooX...+.XXXo$oX.... ",
"#++OO+++.++++O.+OOOOOO++++OOooooXXXXXoooooooooXXX.@XXXoo$oX.... ",
"#OOOO+++.+OOO+.OOOOOOOOO++++OOoooXXXXXoooooooooooX@Xoooo$XX.... ",
"#O+OOO++.+O&#O.OOOOO++OO+++++OOoooXXXoXoooooooooooOo&#oo$XXX... ",
"oooo&#O+.++#.O.ooOOO++++++++++OOooooooXXXXXoooooooOo# oo$X.&#.. ",
"OXXX#.O+.+++Oo.oOOO+++++++++++++OooooooXXXXXoooooo+ooooo$X.# .. ",
"O.XXXoO+.+O+Oo.OOOO++++++++++++++OOooooXXXXXoooooo@XXXoo$XX.... ",
"O.XXXoOO.OOOoX.OOO++++++++OO+++++++OOoooXXXXoooooo@XXXXo$XX.... ",
"oXXXXOoO.OOOOX.OO++++++++OOO+++++++++OoooX..Xooooo@..XXX$X..... ",
"oXXXoOOO.+OOOo.OO++++++++OOOO++++OO+++OooX...XoooX@XXXoX$...... ",
"oooooOOO.++++o.OOO++++++OOOOOO+++++O++OOoX....XXXX@XXooo$...... ",
"oOoooooo.++&#O.ooOO++++OOOOOOOOO+++++++Ooo....XXXX@X&#oo$XX.... ",
"ooXX&#oo.++#.O.ooOOO++++OOooooooOO++++OOOoX...XXoo@o# Oo$oX&#.. ",
"oXXX#.Xo.++OOO.oooOOO+++OoooooooooOOOOOOOoX...Xooo#OOOOo$XX# .. ",
"OXXXXXXo.O++OO.oooOOOO++OoooXXXXooooOOOOooX...Xooo#ooOoo$X..... ",
"OXXXXXXX.oOO+O.oooOOOO++OooXXXXXXXooooooooX...Xooo@oXooX$...... ",
"oXoXXXXX.ooOO+.OOOOOOO++OooooXXXXXoooooooX....Xooo@oXXXX#...... ",
"OXXXXXXX.ooOO+.OOOO++++++OoooXXXooooooooXX....Xooo@oXXX.#...... ",
"OXXoXXXX.ooOO+.++O+++++++OoooooXoooooooXX.....Xooo@oXXX.#....X. ",
"+XXoXXXo.OO&#O.+++++++++++OoooooooooooXX.....XXooo@o&#X.#...XXX ",
"#oXooXXo.OO#.O.O+++++++++++OooooooooooX.....XXoooo#O# XX#..XXoX.",
"#OooOXXo.O++OO.OOO++++++++++OOoooooooX......Xooooo#oooXX$XXXXoX.",
"#+OoXoXo.O++Oo.OOO+++++++++++OOooooXX.......XXoooo#ooXXX$XXXooX.",
"+O+OoOoX.+OOOo.oOO++++++++++++OOooX.........XXXooo@XXX..$XooooO.",
"+oO+OooX.oOooo.oOO++++++++OOO++OooX...........XX.X+.XXXo$oooooX.",
"++OO+Ooo.OOooo.ooO++OO+++OOOOO++OoX...............+XXXoo$oooXXo.",
"#+OOO++o.O++Oo.ooO++OOOO+OOOOOO++oX...............+.XXXX$XXXXXo.",
"+OOOOOO+.OO+OOX######$$$$$$$$$$$###@@@++++++++@@@@#.....$.Xoooo.",
"#OOOOOOo.ooO+OOOOOO++OoooooOO++++++OOoooXXXXXXX.........#XoOOOo.",
"#OOOoooo.XX&#+OOOOO&#Oooooo&#++++++&#oooXXXX&#......&#..#XoO+OO.",
"#++ooooX.XX#.O+OO++#.OoooOO#.O++++O# ooXXXX.# .X...X# ..#.XoOOO.",
"ooOO&#oX.XXooOO++++OOOooOOOOOOO++oooXXX.................#..&#OO.",
"OXOO#.ooO**%%%%%%%%%%%%%%%%%%%%%%%$$$$$$$$$$$$$$$$$$$###*..# OO.",
"+oOOOoooXXXoOO++oO+OO++OO+++++oooXXXXX......X.X.X..........oOOO.",
"#OO++OooXXXoOO+++OOOO+++++++OOooooXXooX.XX.....XXXX.......XoOoo.",
"#++OoooooooooO+OO+O++o+o+OOOOOOOooXooooXXXXX...XXXXX......XoooX.",
"#OOo&#OoO+&#OOo+OO+O++OO+O+++O++OOOOoXooXXXX...XXXXXX&#..XX&#Xo.",
"#+Oo#.OOOO#.O+O+O+O+OOO+OOOOooO++OOOoooOXoXXXX...XXX.# ..Xo# oO.",
"O+OOoO++OXXO+oXo++OO+oOOOooooOOOOOOoooooo..XXXX..XX......Xooooo.",
"X..............................................................."
};
