/* XPM */
static char *_57ac0d7f5b14be6ed57a6b0c6e6a24bQ8ySiZjBLspQhtBQ[] = {
/* columns rows colors chars-per-pixel */
"64 64 32 1 ",
"  c black",
". c #191919",
"X c #202020",
"o c #282828",
"O c gray19",
"+ c gray22",
"@ c gray25",
"# c gray29",
"$ c #045800",
"% c gray36",
"& c #046400",
"* c #646464",
"= c #706C00",
"- c #047000",
"; c gray44",
": c #047C00",
"> c #7C7C7C",
", c #048800",
"< c gray55",
"1 c #049800",
"2 c #989898",
"3 c #9C9C00",
"4 c #04A400",
"5 c gray66",
"6 c #B4B4B4",
"7 c #C0C0C0",
"8 c white",
"9 c None",
"0 c black",
"q c black",
"w c black",
"e c black",
/* pixels */
"############################################################### ",
"#OOOOOO+++++++OOoooOooooooooX.....oooooooXo.................... ",
"#O+O;#++++;#O++OOooOOooXXXX.......XooooooXX..........;#....;#.o ",
"#+O+#.++++#.+++OoooooXXX...........XXXoooOoX.........# ....# .. ",
"#oO++OOO+++++++oooXXXX..............XXXXoooooo............  ... ",
"#OO++OOOOOO+++OOXXXXXX..............XXXXoXooooXX........... ... ",
"#oO++OooooOOOOooXXXXXXX..............XoooOOOoooXX.............. ",
"#oo+;#oo.......                        ......           ...;#.. ",
"#OOO#.oo.oOOOOOX.XooXXoooXXXXX......XXoOOOOOOooXX.....Xo#X.# .. ",
"#oOooooo.O+;#OOooo;#ooO++o;#oX.....;#XoOoooo;#ooXX..;#XO#ooo.X. ",
"#OOoOooo.++#.OOooo#.O+OOOO#.oXX....#.XooXXXX#.oXXX..# Xo#OOo... ",
"#OOOoOoO.+++++OOoXoOOOOoooXooXXX..XXXXXXXXXXXooXXXXXXXXo#OOoX.. ",
"#OOOoOOO.++O++.                                   ..XXXX#OOoX.. ",
"#OOOOOO+.+OOOO.OOoooXXXXXXXXX.....XoooooXXX....XXo#oXXXX#oooX.. ",
"#OOOOO++.+OOOO.+OOooXXXXXooooXX.X.XoooXX.........X#ooXX.#XXX... ",
"#OOOOO++.OOOOO.++OooXXXXXXXoooooooooooX...........#oo.XX#...... ",
"#OOOOOO+.OOOOO.O++OooXXXXXXooooooooooooX..........#XXX..#...... ",
"#+OOOOO+.OOOO+.OO++ooooXXXXooooooooooooXX.........#XXXX.#...... ",
"#+++OOO+.OOOO+.OO++OooooXXXXooooooooooooXX........#XXXX.#...... ",
"#+O++OOO.OO;#+XoOO++OooooXXooooooooooooooXXX......#X;#X.#...... ",
"#O+O+OOo.OO#.OXooOO++Oo*%###@@@OOOooooo...XXX.....#X# XX#XXX... ",
"#O+++Ooo.++++OXoooOO++O;><<>>>>;***%%####>ooXX....#.XXXX#XXX... ",
"#O++OoXo.O+O++.OOOOO++O;>;#<>>>;****%%;+#>oooX....#..Xoo#XX.... ",
"#O++Oooo.O+O++.+OOOOO++;>#.<>>>>;;**%%+.#<oooXX...#..Xoo#oX.... ",
"#+++OOOO.o+++O.+OOOOO++;><<<>>>>;;**%%###<ooooX...#.XXXo#oX.... ",
"#++OO+++.++++O.+OOOOOO+;><<OOOO>;;OOOO%##<oo...oX.#XXXoo#oX.... ",
"#OOOO+++.+OOO+.OOOOOOOO*><<O  O>>>O  O%%%<oo.$$#oX#Xoooo#XX.... ",
"#O+OOO++.+O;#O.OOOOO++O*><<O  O>>>O  O%%%<oo.&&#oo#o;#oo#XXX... ",
"#ooo;#O+.++#.O.ooOOO+++*;><O  O<>>O  O*%%<Xo.--#oo#o# oo#X.;#.. ",
"#XXX#.O+.+++Oo.oOOO++++*;><O  O<<<O  O***2XX.::#oo#ooooo#X.# .. ",
"#.XXXoO+.+O+Oo.OOOO++++%;><O  O<<<O  O***2XX.,,#oo#XXXoo#XX.... ",
"#.XXXoOO.OOOoX.OOO+++++%;;>O  O<<<O  O;**2XX.11#oo#XXXXo#XX.... ",
"#XXXXOoO.OOOOX.OO++++++#;;>O  O<<<O  O;**2...44#oo#..XXX#X..... ",
"#XXXoOOO.+OOOo.OO++++++#;;>O  O<<<O  O>;;2...11#oX#XXXoX#...... ",
"#ooooOOO.++++o.OOO+++++#;;;OXXO<<<OXXO>;;5...,,#XX#XXooo#...... ",
"#Ooooooo.++;#O.ooOO++++@%*;O@@O<<<O@@O>;;5...::#XX#X;#oo#XX.... ",
"#oXX;#oo.++#.O.ooOOO+++@%*;O>;O<<<O>;O>>>5X..--#oo#o# Oo#oX;#.. ",
"#XXX#.Xo.++OOO.oooOOO++@%**O75O<<<O75O>>>6X..&&#oo#OOOOo#XX# .. ",
"#XXXXXXo.O++OO.oooOOOO+O%%33.33.3.33.33>>6X..$$#oo#ooOoo#X..... ",
"#XXXXXXX.oOO+O.oooOOOO+O%%== == = == ==<<6X.o###oo#oXooX#...... ",
"#XoXXXXX.ooOO+.OOOOOOO+O%%%**;;>>><<<<<<<6....Xooo#oXXXX#...... ",
"#XXXXXXX.ooOO+.OOOO++++O@;O**;;;;><<<<;#<7....Xooo#oXXX.#...... ",
"#XXoXXXX.ooOO+.++O+++++O@O.**;;;;><<<<#.<7....Xooo#oXXX.#....X. ",
"#XXoXXXo.OO;#O.++++++++o@##%**;;;;><<<<<<7...XXooo#o;#X.#...XXX ",
"#oXooXXo.OO#.O.O+++++++.;;>>><<<<<22256667..XXoooo#O# XX#..XXoX.",
"#OooOXXo.O++OO.OOO++++++++++OOoooooooX......Xooooo#oooXX#XXXXoX.",
"#+OoXoXo.O++Oo.OOO+++++++++++OOooooXX.......XXoooo#ooXXX#XXXooX.",
"#O+OoOoX.+OOOo.oOO++++++++++++OOooX.........XXXooo#XXX..#XooooO.",
"#oO+OooX.oOooo.oOO++++++++OOO++OooX...........XX.X#.XXXo#oooooX.",
"#+OO+Ooo.OOooo.ooO++OO+++OOOOO++OoX...............#XXXoo#oooXXo.",
"#+OOO++o.O++Oo.ooO++OOOO+OOOOOO++oX...............#.XXXX#XXXXXo.",
"#OOOOOO+.OO+OOX###################################%.....#.Xoooo.",
"#OOOOOOo.ooO+OOOOOO++OoooooOO++++++OOoooXXXXXXX.........#XoOOOo.",
"#OOOoooo.XX;#+OOOOO;#Oooooo;#++++++;#oooXXXX;#......;#..#XoO+OO.",
"#++ooooX.XX#.O+OO++#.OoooOO#.O++++O# ooXXXX.# .X...X# ..#.XoOOO.",
"#oOO;#oX.XXooOO++++OOOooOOOOOOO++oooXXX.................#..;#OO.",
"#XOO#.ooO###############################################%..# OO.",
"#oOOOoooXXXoOO++oO+OO++OO+++++oooXXXXX......X.X.X..........oOOO.",
"#OO++OooXXXoOO+++OOOO+++++++OOooooXXooX.XX.....XXXX.......XoOoo.",
"#++OoooooooooO+OO+O++o+o+OOOOOOOooXooooXXXXX...XXXXX......XoooX.",
"#OOo;#OoO+;#OOo+OO+O++OO+O+++O++OOOOoXooXXXX...XXXXXX;#..XX;#Xo.",
"#+Oo#.OOOO#.O+O+O+O+OOO+OOOOooO++OOOoooOXoXXXX...XXX.# ..Xo# oO.",
"#+OOoO++OXXO+oXo++OO+oOOOooooOOOOOOoooooo..XXXX..XX......Xooooo.",
"X..............................................................."
};
