/* XPM */
static char *_dc1061e37e842afda429e8342aca42adgJvzzmtKVurk3Kg[] = {
/* columns rows colors chars-per-pixel */
"64 64 32 1 ",
"  c black",
". c #202020",
"X c #28200C",
"o c #302410",
"O c gray17",
"+ c gray19",
"@ c #403018",
"# c #483818",
"$ c #543C1C",
"% c #044000",
"& c #5C4020",
"* c #6C4824",
"= c #044C00",
"- c #744C28",
"; c #80502C",
": c #045800",
"> c #885830",
", c #046400",
"< c #047000",
"1 c white",
"2 c None",
"3 c black",
"4 c black",
"5 c black",
"6 c black",
"7 c black",
"8 c black",
"9 c black",
"0 c black",
"q c black",
"w c black",
"e c black",
/* pixels */
";;-**$&&*&;**;>&;*&&&&-&$&*&&&&$&$$*&;&*&&*-&&&#&$&$&$&*;&-*&&;$",
"##@@oXoooo@XX@$@#@ooXo@oXXoooo@o#oXXXXoooXo@Xo@o#o@XoXoo@Xooo@@o",
"XXXXXXXXXXXXXXXXXXXXXXXXXXXXXXXXXXXXXXXXXXXXXXXXXXXXXXXXXXXXXXXX",
".....OO.OOOOOOOOOO...OO+.OO..........OO.O+OO..OOOOOOOOOO.OO.....",
"%%%%%:=%:,:%===::==%%%::%=:%%%%%%%%%%:=%:,:%%%=:::=:==::%=:%%%%%",
"%%%%%:=%=:=%%%=,:=:=%=::%=:%%%%%%%%%%:=%=::%===:,:%%%%,:%=:%%%%%",
"%%%%%:=%=:=%%%=:==,:%%,,%=:%%%%%%%%%%:=%:,:%=,:=:=%%%%::%=:%%%%%",
"%%%%%:=%=:==%%=:==:,==,,%=:%%%%%%%%%%:=%:,:%:,:%=:=%%=::%=:%%%%%",
"%%%%%:=%=:::==::%%=:=:,,%=:%%%%%%%%%%:=%:,:=::=%=::=::::%=:%%%%%",
"%%%%%:=%=::=::=%%%%=::,,%=:%%%%%%%%%%:=%:,,:==%%%=::::::%=:%%%%%",
"%%%%%:=%=,:%%%%%%%%%==,,%=:%%%%%%%%%%:=%:,:=%%%%%%%%%=,:%=:%%%%%",
"%%%%%:=%=,:%%=%%%%%%%=:,%=:%%%%%%%%%%:=%:,:%%%%%%%%%%=,:%=:%%%%%",
"%%%%%:=%::==:::=%%%%%=,:%=:%%%%%%%%%%:=%:,:%%%%%%=====:,%=:%%%%%",
"%%%%%:=%:,::==::=%%%%=,:%=:%%%%%%%%%%:=%:,:%%%%=:::::=::%=:%%%%%",
"%%%%%:=%:,,:%%%::%%%%=,:%=:%%%%%%%%%%:=%:,:%%%%::===:,,,%=:%%%%%",
"%%%%%:=%,::=%%%=:=%%::::%=:%%%%%%%%%%:=%=:,:%%=::%%%=:,,%=:%%%%%",
"%%%%%:=%,,=%%%%%,:=::,,:%=:%%%%%%%%%%:=%:,,,:==,=%%%%=,<%=:%%%%%",
"%%%%%:=%,,=%%%%%::::::,:%=:%%%%%%%%%%:=%:,,:,::,=%%%%%,,%=:%%%%%",
"%%%%%:=%::=%%%%%::::%=::%=:%%%%%%%%%%:=%=::%=::,=%%%%=:,%=:%%%%%",
"%%%%%:=%::=%===:::=%%=,:%=:%%%%%%%%%%:=%=,:%%=:::===%=:,%=:%%%%%",
"%%%%%:=%=:===::::,=%%=:=%=:%%%%%%%%%%:=%=::=%%:,::::==::%=:%%%%%",
"%%%%%:=%=:::=::::,:%=::=%=:%%%%%%%%%%:=%=::=%%,,::::==::%=:%%%%%",
"%%%%%:=%:,,:%%=,,,:=::,:%=:%%%%%%%%%%:=%=,,:==,,,:==::,:%=:%%%%%",
"%%%%%:=%,,:%%%=,:,::::,:%=:%%%%%%%%%%:=%=:,:=:,,,:%%%:,,%=:%%%%%",
"%%%%%:=%,,=%%%:,::===:::%=:%%%%%%%%%%:=%=:,==:::,:=%%=,,%=:%%%%%",
"%%%%%:=%:,=%==::,=%%%=,:%=:%%%%%%%%%%:=%=::=%%%,,::=%=,,%=:%%%%%",
"%%%%%:=%:,=%====,:%%%=,,%=:%%%%%%%%%%:=%:,,%%%=,:=:=%%,,%=:%%%%%",
"%%%%%:=%:::=:=%%::===:,,%=:%%%%%%%%%%:=%:,,:%=::=%=:==,:%=:%%%%%",
"%%%%%:=%:::::=%%=:::,,,:%=:%%%%%%%%%%:=%=,,,::::%%=:::,:%=:%%%%%",
"%%%%%:=%::::=%%%%=::::::%=:%%%%%%%%%%:=%=::,,::%%%%=:,::%=:%%%%%",
"%%%%%:=%=::=%%%%%%%==::=%=:%%%%%%%%%%:=%=::===%%%%%%=:::%=:%%%%%",
"%%%%%:=%::=%%%%%======,:%=:%%%%%%%%%%:=%=:,=====%%%%%=::%=:%%%%%",
"%%%%%:=%:,=%%%%=::::==,:%=:%%%%%%%%%%:=%:,,=::::=%%%%=,,%=:%%%%%",
"%%%%%:=%:,:%%%%::===::::%=:%%%%%%%%%%:=%=:,:===::=%%%=,,%=:%%%%%",
"%%%%%:=%:,:=%%%:=%%%=:::%=:%%%%%%%%%%:=%=:,:=%%=:=%%%=,,%=:%%%%%",
"%%%%%:=%:,:==%==%%%%%=::%=:%%%%%%%%%%:=%=::=%%%%==%%=:,,%=:%%%%%",
"%%%%%:=%=::====:%%%%%=:,%=:%%%%%%%%%%:=%:,:%%%%%=:===:,:%=:%%%%%",
"%%%%%:=%=::%=:::%%%%%=::%=:%%%%%%%%%%:=%=,:%%%%%=::===,:%=:%%%%%",
"%%%%%:=%=::%%:::====%%::%=:%%%%%%%%%%:=%=::%%====::=%=,:%=:%%%%%",
"%%%%%:=%=:=%%=,:::::==,:%=:%%%%%%%%%%:=%=::==::::,:%%=::%=:%%%%%",
"%%%%%:=%=:=%%=,,,:==:,,:%=:%%%%%%%%%%:=%=,,:::::,,,%%=::%=:%%%%%",
"$&$&*;&-*&&;$;>&;*&&&&-&$&*;>&;*&&&&-&$&*&&&&$&$$*&;&*&&*-&&&#&$",
"XoXoo@Xooo@@o@$@#@ooXo@oXXo@$@#@ooXo@oXXoooo@o#oXXXXoooXo@Xo@o#o",
"XXXXXXXXXXXXXXXXXXXXXXXXXXXXXXXXXXXXXXXXXXXXXXXXXXXXXXXXXXXXXXXX",
"o@o@X &o#o#o###X &#o#oo#@oX &ooo#@oooX &o@#ooo#X &#oooooooX &o##",
"$*$*o >$-$-$---o >-$-$$-&$o >$$&-&&$&o >&&-&$$-o >-$$$&&$$o >&--",
"$*$*o >$-$-$---o >-$-$$-&$o >$$&-&$$&o >$&-&$$-o >*$$$&*&$o >&-*",
"$*$*o >$-$-$---o >-$-$$-$&o >$$&-&$&&o >$&-&$$-o >*$$&*-*&o >*-*",
"$*$*o >$-$-$*--o >-$-$$-$&o >$$&-&$&*o >$&-&$$-o >&$$&---&o >--&",
"$*$*o >$-$-$*--o >-$-$$-$&o >$$&-&$&*o >$&-&$$-o >&$$*---*o >--&",
"$*$*o >$-$-$&--o >-$-$$-$&o >$$*-$$&-o >$$-*$$-o >$$$-----o >--&",
"$*$*o >$-$-$&--o >-$-$$-$&o >$$**$$&-o >$$**$$-o >$$&-----o >--&",
"$*$*o >$-$-&$--o >-$-$$*$&o >$$-*$$*-o >$$*-$$-o >$$&-----o >-*$",
"$*$*o >$-$-&$--o >-$-$$*$*o >$$-&$$*-o >$$&-$$-o >$$*-----o >-*$",
"$*$*o >$-$-&$--o >-$-$$*$*o >$$-&$&--o >&$&-$$-o >$$*-----o >-*$",
"$*$*o >$-$-&$--o >-$-$$&$*o >$$-&$&--o >&$&-$$-o >$$---&--o >-&$",
"$*$*o >$-$-&$--o >-$-$$&$-o >$$-&$&--o >&$&-$$-o >$&--&$&-o >-&$",
"$*$*o >$-$-&$*-o >-$-$$$$-o >$$-&$&--o >&$&-$$-o >$&--&$&*o >-&$",
"&*$*o >$-$-*$*-o >-$-$$$&-o >$$-&$&--o >&$&-$$-o >$&-&&$$&o >-&$",
"&*$*o >$-$-*$**o >-$-$$$&-o >$$-$$*-*o >*$$-$$-o >$*-&$$$&o >*$$",
"&*$*o >$-$-*$&*o >-$-$$$&-o >$$-$$*-*o >*$$-$$-o >$*-&$$$$o >*$$",
"&&&&$&$$*&;&*&&*-&&&#&$&$&$&*;&-*&&;$;;-**$&&*&;**;>&;*&&&&-&$&*",
"ooo@o#oXXXXoooXo@Xo@o#o@XoXoo@Xooo@@o##@@oXoooo@XX@$@#@ooXo@oXXo",
"XXXXXXXXXXXXXXXXXXXXXXXXXXXXXXXXXXXXXXXXXXXXXXXXXXXXXXXXXXXXXXXX"
};
