/* XPM */
static char *bae85d8d94ce4d47d6c7966620e6355bq3FFuF6qfZbAvXjM[] = {
/* columns rows colors chars-per-pixel */
"64 64 32 1 ",
"  c black",
". c #191919",
"X c #202020",
"o c #28200C",
"O c #182118",
"+ c #302410",
"@ c #282828",
"# c #2E2B22",
"$ c #403018",
"% c #343434",
"& c #483818",
"* c #543C1C",
"= c #5C4020",
"- c #4C4436",
"; c #6C4824",
": c #524A42",
"> c #744C28",
", c #80502C",
"< c #5E5246",
"1 c #885830",
"2 c #736352",
"3 c #7B6B5A",
"4 c #94846B",
"5 c white",
"6 c None",
"7 c black",
"8 c black",
"9 c black",
"0 c black",
"q c black",
"w c black",
"e c black",
/* pixels */
",,>;;*==;=,;;,1=,;====>=*=;====*=**;=,=;==;>===&=*=*=*=;,=>;==,*",
"&&$$+o++++$oo$*$&$++o+$+oo++++$+&+oooo+++o+$o+$+&+$o+o++$o+++$$+",
"oooooooooooooooooooooooooooooooooooooooooooooooooooooooooooooooo",
"+$+$o =+&+&+&&&o =&+&++&$+o =+++&$+++o =+$&+++&o =&+++++++o =+&&",
"*;*;+ 1*>*>*>>>+ 1>*>**>=*+ 1**=>==*=+ 1==>=**>+ 1>***==**+ 1=>>",
"*;*;+ 1*>*>*>>>+ 1>*>**>=*+ 1**=>=**=+ 1*=>=**>+ 1;***=;=*+ 1=>;",
"*;*;+ 1*>*>*>>>+ 1>*>**>*=+ 1**=>=*==+ 1*=>=**>+ 1;**=;>;=+ 1;>;",
"*;*;+ 1*>*>*;>>+ 1>*>**>*=+ 1**=>=*=;+ 1*=>=**>+ 1=**=>>>=+ 1>>=",
"*;*;+ 1*>*>*;>>+ 1>*>**>*=+ 1**=>=*=;+ 1*=>=**>+ 1=**;>>>;+ 1>>=",
"*;*;+ 1*>*>*=>>+ 1>*>**>*=+ 1**;>**=>+ 1**>;**>+ 1***>>>>>+ 1>>=",
"*;*;+ 1*>*>*=>>+ 1>*>**>*=+ 1**;;**=>+ 1**;;**>+ 1**=>>>>>+ 1>>=",
"*;*;+ 1*>*>=*>>+ 1>*>**;*=+ 1**>;**;>+ 1**;>**>+ 1**=>>>>>+ 1>;*",
"*;*;+ 1*>*>=*>>+ 1>*>**;*;+ 1**>=**;>+ 1**=>**>+ 1**;>>>>>+ 1>;*",
"*;*;+ 1*>*>=*>>+ 1>*>**;*;+ 1**>=*=>>+ 1=*=>**>+ 1**;>>>>>+ 1>;*",
"*;*;+ 1*>*>=*>>+ 1>*>**=*;+ 1**>=*=>>+ 1=*=>**>+ 1**>>>=>>+ 1>=*",
"*;*;+ 1*>*>=*>>+ 1>*>**=*>+ 1**>=*=>>+ 1=*=>**>+ 1*=>>=*=>+ 1>=*",
"*;*;+ 1*>*>=*;>+ 1>*>****>+ 1**>=*=>>+ 1=*=>**>+ 1*=>>=*=;+ 1>=*",
"=;*;+ 1*>*>;*;>+ 1>*>***=>+ 1**>=*=>>+ 1=*=>**>+ 1*=>==**=+ 1>=*",
"=;*;+ 1*>*>;*;;+ 1>*>***=>+ 1**>**;>;+ 1;**>**>+ 1*;>=***=+ 1;**",
"=;*;+ 1*>*>;*=;+ 1>*>***=>+ 1**>**;>;+ 1;**>**>+ 1*;>=****+ 1;**",
"=;*;+ 1*>*>>*=;+ 1>*>***=>+ 1**>**>>=+ 1>**>**>+ 1*>;*****+ 1=**",
"=;*;+ 1*>*;>*=;+ 1;*>**=;>+ 1**>**>>=+ 1>**>**>+ 1*>;*****+ 1=**",
"==*;+ 1*>*;>=*=+ 1;*>**=;>+ 1**>*=>;=+ 1>=*>**>+ 1*>=*****+ 1=**",
";=*;+ 1*>*=>=*=+ 1=*>**=>>+ 1**>*=>;=+ 1>=*>**>+ 1*>=*****+ 1***",
";=*;+ 1*>*=>=*=+ 1=*>**=>>+ 1**>*=>=*+ 1>=*>**>+ 1*>=*****+ 1***",
">**;+ 1*>*=>=*=+ 1=*>**;>;+ 1**>*=>=*+ 1>=*>**>+ 1=;******+ 1**=",
">**;+ 1*>*=>;=*+ 1=*>**;>;+ 1**>*=>=*+ 1>=*>**>+ 1=;***==*+ 1**=",
">**;+ 1*>*=>;=*+ 1=*>**>>=+ 1**>*;>=*+ 1>;*>**>+ 1==**====+ 1**=",
">**;+ 1*>**>>=*+ 1**>**>>=+ 1**>*;>*=+ 1>;*>**>+ 1;=**=;;=+ 1**;",
">**;+ 1*>**>>==+ 1**>**>>=+ 1**>*>>*=+ 1>>*>**>+ 1;=**=>>=+ 1**;",
";*=;+ 1*>**;>;=+ 1**>**>>=+ 1**>*>;*=+ 1;>*>**>+ 1;=**;>>=+ 1*=>",
";*=;+ 1*>**;>;=+ 1**>**>>=+ 1**>*>;*;+ 1;>*>**>+ 1;=**;>>;+ 1*=>",
"=*=;+ 1*>=*=>>;+ 1*=>**>;*+ 1**>*>;*;+ 1;>*>**>+ 1;=*=>>>;+ 1==>",
"=*=;+ 1*>=*=>>;+ 1*=>**>;*+ 1**>*>=*;+ 1=>*>**>+ 1;**=>>>>+ 1=>>",
"=*=;+ 1*>=*=>>>+ 1*=>**>=*+ 1**>*>=*>+ 1=>*>**>+ 1;**=>>>>+ 1=>>",
"**;;+ 1*>=*=>>>+ 1*=>**>=*+ 1**>*>=*>+ 1=>*>**>+ 1;**=>>>>+ 1>>>",
"**;;+ 1*>=*=>>>+ 1*=>**;=*+ 1**>*>=*>+ 1=>*>**>+ 1;**;>>>>+ 1>>;",
"**>;+ 1*>=**;>>+ 1*=>**;=*+ 1**>*>=*>+ 1=>*>**>+ 1;**;>>>>+ 1>>;",
"**>;+ 1*>;**;>>+ 1*;>**==*+ 1**>*>=*>+ 1=>*>**>+ 1;**;>>>>+ 1>>=",
"**>=+ 1*;;**=>>+ 1*;;**=**+ 1**>*>*=>+ 1*>*>**>+ 1;*=>>>;>+ 1>>=",
"====*=**;=,=;==;>===&=*=*=*=;,=>;==,*,,>;;*==;=,;;,1=,;====>=*=;",
"+++$+&+oooo+++o+$o+$+&+$o+o++$o+++$$+&&$$+o++++$oo$*$&$++o+$+oo+",
"oooooooooooooooooooooooooooooooooooooooooooooooooooooooooooooooo",
"XXXXXXXXXXXXXXXXXXXXXXXXXXXXXXXXXXXXXXXXXXXXXXXXXXXXXXXXXXXXXXXX",
"2222222222:---.@@---:222222222222222222222:---.@@---:22222222222",
"<:-:<<-----:-# @@%<<::<2<2<--<<:::22<232<:<<<# @@%2<223224332342",
"::---:---2:-:# @@%<2<<<<<:<:-:<<<<<222<:---::# @@%<<234333<32223",
"2::-<-<<:<2<-# @@%2<2<223<::---<2:2<2222<-:-:# @@%<2<44423322<22",
"2:2<-:<:<:2<:# @@%2<2<3222::--%222<<<22<32:%:# @@%22244442222<2<",
"<<<--::<<:<<2# @@%232<2<<<<<-:--::<:<<2<<<<:-# @@%33324442<22<<2",
"<2<:--::2<<24# @@%32<<:<2<<---#%%<:<:233<2<<-# @@%223223343<<<2<",
"::2223<<33222# @@%<22<<<:<<:-::---%<<<2332222# @@%2:<2<34332<2<2",
"     .....O### @@###O....            .....O### @@###O....       ",
"               @@.                             @@.              ",
"XXXXXXXXXXXXXXX@@XXXXXXXXXXXXXXXXXXXXXXXXXXXXXX@@XXXXXXXXXXXXXXX",
"@---:222222222222222222222:---.@@---:222222222222222222222:---.@",
"@%<<2<22322232<<222<--:-<<<22# @@%2<2:<<<333232<<22<<<:-<22<3# @",
"@%<<<2:33443<:<<<2<2<-:<<2<32# @@%-<:::<<<323222<2:<<<::::<23# @",
"@%:-:2<33333<2:-:<:<2:-222<32# @@%-<<:<:<:2<22<<<:-:::<:2<<2<# @",
"@%-%:-323343<:-:-<<<<2:<2233<# @@%<<::----<<22<::%<-<2<<22<22# @",
"@%:-:<<223342<:%-::2<2<<2222<# @@%-:<:------2<2<:-::-22233<:-# @",
"@%:--:<<22<2<<<:-::2<22<<2<22# @@%:---:%-:--<:22<<-<:<322<22-# @",
"@###O....            .....O### @@###O....            .....O### @",
"@.                             @@.                             @"
};
